<?xml version="1.0" encoding="UTF-8"?>
<!DOCTYPE svg PUBLIC "-//W3C//DTD SVG 1.1//EN" "http://www.w3.org/Graphics/SVG/1.1/DTD/svg11.dtd">
<!-- Creator: CorelDRAW -->
<svg xmlns="http://www.w3.org/2000/svg" xml:space="preserve" width="150mm" height="100mm" style="shape-rendering:geometricPrecision; text-rendering:geometricPrecision; image-rendering:optimizeQuality; fill-rule:evenodd; clip-rule:evenodd"
viewBox="0 0 150 100"
 xmlns:xlink="http://www.w3.org/1999/xlink">
 <defs>
  <style type="text/css">
   <![CDATA[
    .fil17 {fill:#33C7F9}
    .fil14 {fill:#556973}
    .fil10 {fill:#58676C}
    .fil11 {fill:#5A6B71}
    .fil7 {fill:#5D6E75}
    .fil6 {fill:#5E7076}
    .fil15 {fill:#5F7078}
    .fil8 {fill:#5F7177}
    .fil12 {fill:#617279}
    .fil9 {fill:#6B7E8B}
    .fil0 {fill:#6E8391}
    .fil18 {fill:#73CCEB}
    .fil4 {fill:#869CA9}
    .fil1 {fill:#879DAA}
    .fil16 {fill:#95C7D9}
    .fil5 {fill:#9FD7E7}
    .fil13 {fill:#9FD7E8}
    .fil3 {fill:#FAFBFC}
    .fil2 {fill:#FEFFFD}
   ]]>
  </style>
 </defs>
 <g id="图层_x0020_1">
  <metadata id="CorelCorpID_0Corel-Layer"/>
  <path class="fil0" d="M102.709 36.1426l9.1743 0.3529 1.7598 -0.3993 -0.8564 5.3146 -0.9108 0.3582 0.0074 -0.6864 -0.4011 1.4051 -9.4789 0.0064 -2.8229 14.4671 2.8229 0.7057c1.3053,-0.8282 1.8329,0.3529 3.8814,0.3529l3.1757 0 -1.2247 5.2551 -0.5395 -0.3151 -0.4028 1.049 -9.8301 0.0096c-2.6602,0 -6.7043,-1.6146 -6.7043,-3.8815l0 -2.8228c0,-4.8641 2.72,-10.2043 2.8228,-14.82l-7.41 0 1.1496 -5.6242 7.6719 -0.0216 1.6105 -7.7176 0.8595 -0.0452c0.4052,-0.5531 0.0649,-0.7058 1.0586,-0.7058l7.0571 0 -1.4761 7.7508 -0.9939 0.0121zm-20.8186 25.7586l0 2.1172 -7.7629 0 -0.4374 -8.8166 -9.7954 -0.0049c-1.228,0 -4.2382,7.495 -4.9401,8.8215l-8.1157 0 18.4394 -35.9448 9.7892 -0.0467 -8.8213 -0.374 -0.0001 -0.3317 10.2329 0 2.7011 36.0014 -0.923 0.7106 -0.3667 -2.132zm-52.9287 16.9372l2.47 0.3529 0.7058 0 7.7628 -0.3529 0 -4.94 17.6429 0 -16.2314 -0.3659 0 -0.6927 17.6428 0 0 5.9986 82.2159 0 0 -57.163 -15.5257 0 0 -6.7043 -96.6831 0 0 63.8673z"/>
  <path class="fil1" d="M12.0245 59.4312l5.2928 0 -0.798 4.2147 -4.4948 0.0196 -1.7643 0 0 1.7643 1.7643 0 5.2928 0 -0.7399 4.2276 -4.5529 0.0067 -1.7643 0 0 1.7643 1.7643 0 5.2928 0 -0.7057 3.1757 0 1.0586 -4.5871 0 -1.7643 0 0 5.2929 17.29 0 0 -2.1172 0 -63.8673 1.4114 0 96.6831 0 2.1171 0 0 4.2343 13.4086 0 0 2.47 0 57.163 0.3568 -59.633 1.7603 0 0 -6.3514 -0.7057 -0.3529c-0.8992,-1.0345 -1.4369,-1.1014 -2.1171,-2.1171l-12.7029 0 0 4.2343 -100.212 0 0 -1.0586 -17.29 0 0 45.8715 1.7643 0z"/>
  <path class="fil2" d="M66.7174 48.1398l6.1855 -13.1349 0.166 14.1935 -7.0839 -0.015 0.7324 -1.0436zm15.1729 13.7614l-2.8229 -33.8743 -9.7892 0.0467 -18.4394 35.9448 8.1157 0c0.7019,-1.3265 3.7121,-8.8215 4.9401,-8.8215l9.7954 0.0049 0.4374 8.8166 7.7629 0 0 -2.1172z"/>
  <path class="fil3" d="M107.296 62.9598l0.6643 -4.242 -2.7815 0.0077c-3.424,0 -4.5282,0.3986 -6.7043,-1.0586l0 -0.7057c0,-2.5271 2.2423,-13.9479 3.5286,-14.4671l9.4789 -0.0064 0.4011 -1.4051c0.2455,-0.4951 0.2403,-0.3543 0.3529,-1.0586l0.4408 -2.8088c-0.0164,-0.4614 -0.5323,-0.5729 -0.7937,-0.7197l-9.1743 -0.3529 1.4298 -7.0536 -7.0755 -0.0035 -0.8595 0.0452 -1.6105 7.7176 -7.6719 0.0216 -1.1496 5.6242 7.41 0c-0.1028,4.6157 -2.8228,9.9559 -2.8228,14.82l0 2.8228c0,2.2669 4.0441,3.8815 6.7043,3.8815l9.8301 -0.0096 0.4028 -1.049z"/>
  <polygon class="fil4" points="48.016,83.0727 32.1374,79.1913 31.4316,79.1913 31.4316,98.5985 "/>
  <polygon class="fil5" points="39.9002,78.8384 39.9003,79.8795 51.1917,80.2498 51.5975,79.5618 57.1903,79.5441 57.5431,78.8384 57.5431,73.8984 39.9002,73.8984 "/>
  <polygon class="fil6" points="27.5502,78.8384 28.9616,78.8384 28.9616,14.9711 27.5502,14.9711 "/>
  <polygon class="fil7" points="79.0674,28.0269 81.8903,61.9012 82.257,64.0332 83.18,63.3226 80.4789,27.3212 70.246,27.3212 70.2461,27.6529 "/>
  <polygon class="fil8" points="141.17,21.6754 141.17,19.2054 127.762,19.2054 127.762,14.9711 125.645,14.9711 125.645,21.6754 "/>
  <polygon class="fil9" points="66.7174,48.1398 71.309,48.7991 73.0689,49.1984 72.9029,35.0049 "/>
  <polygon class="fil10" points="48.016,83.0727 51.1917,80.2498 39.9003,79.8795 39.9002,78.8384 32.1374,79.1913 "/>
  <polygon class="fil11" points="57.5431,73.8984 57.5431,78.8384 58.9545,78.8384 58.9545,72.8398 41.3117,72.8398 41.3117,73.5325 "/>
  <polygon class="fil9" points="12.0245,69.6641 16.5774,69.6574 17.3173,65.4298 12.0245,65.4298 "/>
  <polygon class="fil9" points="12.0245,63.6655 16.5193,63.6459 17.3173,59.4312 12.0245,59.4312 "/>
  <polygon class="fil0" points="12.0245,74.957 15.9059,74.6041 16.6116,74.6041 17.3173,71.4284 12.0245,71.4284 "/>
  <path class="fil7" d="M98.4746 56.9612l0.7057 0 2.8229 -14.4671c-1.2863,0.5192 -3.5286,11.94 -3.5286,14.4671z"/>
  <path class="fil11" d="M97.0632 29.0855l7.0755 0.0035 -1.4298 7.0536 0.9939 -0.0121 1.4761 -7.7508 -7.0571 0c-0.9937,0 -0.6534,0.1527 -1.0586,0.7058z"/>
  <path class="fil12" d="M105.179 58.7255l2.7815 -0.0077 -0.6643 4.242 0.5395 0.3151 1.2247 -5.2551 -3.1757 0c-2.0485,0 -2.5761,-1.1811 -3.8814,-0.3529l3.1757 1.0586z"/>
  <path class="fil13" d="M105.179 58.7255l-3.1757 -1.0586 -2.8229 -0.7057 -0.7057 0 0 0.7057c2.1761,1.4572 3.2803,1.0586 6.7043,1.0586z"/>
  <path class="fil14" d="M111.883 41.0826l-0.0074 0.6864 0.9108 -0.3582 0.8564 -5.3146 -1.7598 0.3993c0.2614,0.1468 0.7773,0.2583 0.7937,0.7197l-0.4408 2.8088c-0.1126,0.7043 -0.1074,0.5635 -0.3529,1.0586z"/>
  <polygon class="fil15" points="12.0245,74.957 12.0245,75.6627 16.6116,75.6627 16.6116,74.6041 15.9059,74.6041 "/>
  <polygon class="fil16" points="73.0689,49.1984 71.309,48.7991 66.7174,48.1398 65.985,49.1834 "/>
  <path class="fil17" d="M142.582 12.5011l0.0471 -1.9066 -2.1642 -0.2105c0.6802,1.0157 1.2179,1.0826 2.1171,2.1171z"/>
  <polygon class="fil18" points="142.582,12.5011 143.288,12.854 143.286,9.9906 140.465,10.384 142.629,10.5945 "/>
 </g>
</svg>
