<svg width="512" height="512" xmlns="http://www.w3.org/2000/svg">

 <g>
  <title>background</title>
  <rect fill="none" id="canvas_background" height="402" width="582" y="-1" x="-1"/>
 </g>
 <g>
  <title>Layer 1</title>
  <g stroke="null" id="svg_1">
   <path stroke="null" id="svg_2" fill="#E6E6E6" d="m132.789811,228.651907c8.410641,12.38011 17.947328,24.81277 28.560095,36.185496l36.426682,-117.927336l-63.539666,0l-44.528286,0c0,0 15.239083,40.625519 43.081174,81.74184z"/>
   <path stroke="null" id="svg_3" fill="#E6E6E6" d="m236.818329,25.292933c-27.843017,-41.116321 -147.109692,121.617134 -147.109692,121.617134l44.528285,0l63.539666,0l40.545954,-131.222617l-192.31408,0c-16.166197,0 -29.277175,14.049828 -29.277175,31.373653l0,329.592902c0,17.323825 13.110978,31.373653 29.277175,31.373653c58.270909,-0.223717 256.141378,-0.447435 314.412287,-0.671152c-19.298777,-60.480996 -19.805305,-57.873729 -43.802144,-132.448911c-59.167417,-192.585617 -71.38871,-237.234552 -79.800276,-249.614661z"/>
  </g>
  <polygon id="svg_4" fill="#3A5BBC" points="364.282,409.734 281.399,497.963 252.043,409.734 "/>
  <path stroke="null" transform="rotate(0.12701649963855743 383.771392822209,296.33447265626506) " id="svg_5" fill="#518EF8" d="m501.393217,342.618401l-2.218501,148.174094l-46.103331,0c-29.02815,0.000496 -133.220645,2.181081 -162.919945,2.183065c19.617324,-20.865167 29.904251,-37.590806 47.343738,-59.5965c47.649628,-9.620134 -11.715639,-155.247167 -48.854098,-265.352344c-18.210323,-57.497791 -26.478926,-66.773829 -20.640569,-67.442003l177.951456,-0.89135c66.621246,8.347427 22.450653,-6.549904 49.503801,15.308308c9.290956,167.337961 3.902792,188.425002 5.937449,227.61673z"/>
  <text xml:space="preserve" text-anchor="start" font-family="Arvo, sans-serif" font-size="141" id="svg_27" y="331.758651" x="334.300973" stroke-width="0" stroke="null" fill="#E6E6E6">繁</text>
  <path id="svg_7" fill="#333333" d="m470.261227,90.924587l-200.603,0l-26.935,-81.355c-1.358,-4.104 -5.195,-6.875 -9.518,-6.875l-191.606,0c-22.976,0 -41.669,18.693 -41.669,41.669l0,332.412c0,22.976 18.693,41.668 41.669,41.668l203.145,0l27.073,81.369c1.364,4.097 5.195,6.861 9.513,6.861l188.932,0c22.976,0 41.669,-18.693 41.669,-41.669l0,-332.411c-0.001,-22.976 -18.694,-41.669 -41.67,-41.669zm-450.279,285.851l0,-332.412c0,-11.919 9.697,-21.616 21.616,-21.616l184.364,0l110.024,332.32c0.011,0.037 0.025,0.072 0.036,0.11l14.307,43.215l-308.73,0c-11.92,0 -21.617,-9.698 -21.617,-21.617zm245.894,41.669l75.162,0l-55.503,59.085l-19.659,-59.085zm226.002,46.561c0,11.919 -9.697,21.616 -21.616,21.616l-165.758,0l67.015,-71.339l-0.004,-0.004c0.293,-0.311 0.571,-0.64 0.825,-0.992c1.885,-2.609 2.402,-5.966 1.39,-9.022l-16.687,-50.405l-43.569,-131.59l-37.178,-112.292l193.965,0c11.919,0 21.616,9.697 21.616,21.616l0,332.412l0.001,0z"/>
  <g id="svg_8"/>
  <g id="svg_9"/>
  <g id="svg_10"/>
  <g id="svg_11"/>
  <g id="svg_12"/>
  <g id="svg_13"/>
  <g id="svg_14"/>
  <g id="svg_15"/>
  <g id="svg_16"/>
  <g id="svg_17"/>
  <g id="svg_18"/>
  <g id="svg_19"/>
  <g id="svg_20"/>
  <g id="svg_21"/>
  <g id="svg_22"/>
  <text stroke="null" transform="rotate(60.00666046142578 156.667724609375,81.64123535156249) matrix(3.231544225500482,0,0,5.582467692677888,-200.79661520930648,-830.4380355208332) " font-style="normal" font-weight="normal" xml:space="preserve" text-anchor="start" font-family="Arvo, sans-serif" font-size="24" id="svg_25" y="171.668945" x="104.053539" fill-opacity="null" stroke-opacity="null" stroke-width="0" fill="#000000"/>
  <text stroke="null" transform="matrix(5.672945499420166,0,0,5.915319442749023,-356.3851091042161,-637.5322920978069) " xml:space="preserve" text-anchor="start" font-family="Arvo, sans-serif" font-size="24" id="svg_26" y="152.779805" x="76.275392" stroke-width="0" fill="#333333">简</text>
  <rect opacity="0" stroke="null" id="svg_29" height="0.671152" width="20.134552" y="255.664428" x="491.865461" fill-opacity="null" stroke-opacity="null" stroke-width="NaN" fill="#518EF8"/>
 </g>
</svg>